<svg width="128" height="128" viewBox="0 0 128 128" fill="none" xmlns="http://www.w3.org/2000/svg">
<path opacity="0.8" d="M44.6963 63.693C63.1821 55.4773 74.4787 83.2061 74.4787 83.2061C74.4787 70.2693 74.4787 56.4292 80.9138 48.3861" stroke="#E0E9FB" stroke-opacity="0.9" stroke-width="7" stroke-linecap="round" stroke-linejoin="round"/>
<path d="M91.7153 46.2214C96.6195 46.2214 100.595 42.2804 100.595 37.4189C100.595 32.5574 96.6195 28.6164 91.7153 28.6164C86.8112 28.6164 82.8357 32.5574 82.8357 37.4189C82.8357 42.2804 86.8112 46.2214 91.7153 46.2214Z" fill="#E0E9FB"/>
<path opacity="0.5" d="M34.5752 72.6498C36.7403 72.6498 38.4954 70.8947 38.4954 68.7297C38.4954 66.5646 36.7403 64.8095 34.5752 64.8095C32.4102 64.8095 30.6551 66.5646 30.6551 68.7297C30.6551 70.8947 32.4102 72.6498 34.5752 72.6498Z" fill="#E0E9FB"/>
<path opacity="0.3" d="M26.3795 81.2018C28.7414 81.2018 30.656 79.2872 30.656 76.9254C30.656 74.5636 28.7414 72.6489 26.3795 72.6489C24.0177 72.6489 22.1031 74.5636 22.1031 76.9254C22.1031 79.2872 24.0177 81.2018 26.3795 81.2018Z" fill="#E0E9FB"/>
<path d="M44.8775 101.424H26.6726C23.8258 101.426 21.0065 100.867 18.376 99.7792C15.7455 98.6909 13.3554 97.0946 11.3424 95.0816C9.32945 93.0687 7.73316 90.6785 6.64486 88.048C5.55656 85.4175 4.99761 82.5982 5.00001 79.7515V34.6726C4.99773 31.8258 5.55675 29.0066 6.64509 26.3761C7.73343 23.7457 9.32973 21.3556 11.3427 19.3427C13.3556 17.3297 15.7457 15.7334 18.3761 14.6451C21.0066 13.5567 23.8258 12.9977 26.6726 13H100.359C103.206 12.9977 106.025 13.5567 108.656 14.6451C111.286 15.7334 113.676 17.3297 115.689 19.3427C117.702 21.3556 119.298 23.7457 120.387 26.3761C121.475 29.0066 122.034 31.8258 122.032 34.6726V79.7515C122.034 82.5982 121.475 85.4174 120.387 88.0479C119.298 90.6784 117.702 93.0684 115.689 95.0814C113.676 97.0943 111.286 98.6906 108.656 99.7789C106.025 100.867 103.206 101.426 100.359 101.424H82.1543V95.3557H100.359C104.496 95.3511 108.463 93.7056 111.388 90.7803C114.313 87.8549 115.959 83.8886 115.963 79.7515V34.6726C115.959 30.5355 114.313 26.5691 111.388 23.6438C108.463 20.7184 104.496 19.0729 100.359 19.0683H26.6726C22.5355 19.0729 18.5691 20.7184 15.6438 23.6438C12.7184 26.5691 11.0729 30.5355 11.0683 34.6726V79.7515C11.0729 83.8886 12.7184 87.8549 15.6438 90.7803C18.5691 93.7056 22.5355 95.3511 26.6726 95.3557H44.8775V101.424Z" fill="#E0E9FB"/>
<path d="M57.0497 114.377C56.1257 114.373 55.2155 114.152 54.3927 113.731C53.4226 113.253 52.6074 112.51 52.0412 111.588C51.4749 110.667 51.1806 109.604 51.1921 108.523V89.495C51.1804 88.4136 51.4745 87.351 52.0404 86.4295C52.6064 85.508 53.4212 84.7652 54.3909 84.2866C55.353 83.797 56.4322 83.5846 57.508 83.6733C58.5838 83.7619 59.6138 84.1481 60.4827 84.7886L73.4559 94.3002C74.1951 94.8426 74.7963 95.5515 75.2107 96.3695C75.625 97.1874 75.841 98.0914 75.841 99.0084C75.841 99.9253 75.625 100.829 75.2107 101.647C74.7963 102.465 74.1951 103.174 73.4559 103.717L60.4818 113.225C59.4904 113.964 58.2876 114.366 57.0506 114.371L57.0497 114.377ZM57.0445 87.1656C56.6749 87.1669 56.3109 87.256 55.9826 87.4257C55.5956 87.6128 55.2704 87.907 55.0455 88.2733C54.8206 88.6395 54.7053 89.0626 54.7134 89.4924V108.523C54.706 108.952 54.8215 109.375 55.0463 109.741C55.2712 110.107 55.596 110.402 55.9826 110.589C56.3622 110.79 56.7913 110.878 57.2193 110.843C57.6473 110.808 58.0565 110.652 58.3986 110.393L71.3727 100.877C71.6663 100.662 71.9051 100.381 72.0698 100.057C72.2344 99.732 72.3202 99.3732 72.3202 99.0092C72.3202 98.6453 72.2344 98.2865 72.0698 97.9619C71.9051 97.6373 71.6663 97.3561 71.3727 97.141L58.4004 87.6268C58.0097 87.3314 57.5343 87.1697 57.0445 87.1656Z" fill="#E0E9FB"/>
</svg>
